<?xml version="1.0" encoding="utf-8"?>
<!-- Generator: Adobe Illustrator 16.0.3, SVG Export Plug-In . SVG Version: 6.00 Build 0)  -->
<!DOCTYPE svg PUBLIC "-//W3C//DTD SVG 1.1//EN" "http://www.w3.org/Graphics/SVG/1.1/DTD/svg11.dtd">
<svg version="1.1" id="Capa_1" xmlns="http://www.w3.org/2000/svg" xmlns:xlink="http://www.w3.org/1999/xlink" x="0px" y="0px"
	 width="375px" height="375px" viewBox="0 0 375 375" enable-background="new 0 0 375 375" xml:space="preserve">
<g id="Capa_1_1_">
	<polyline fill="#FFFFFF" stroke="#FFFFFF" stroke-width="24" stroke-miterlimit="10" points="108.644,236.236 84.942,236.236 
		84.942,181.708 	"/>
	<polyline fill="none" stroke="#FFFFFF" stroke-width="24" stroke-miterlimit="10" points="267.158,236.236 291.173,236.184 
		291.092,181.708 	"/>
	<g>
		<path fill="#FFFFFF" d="M188.018,279.621c-60.145,0-109.075-49.021-109.075-109.276s48.93-109.276,109.075-109.276
			s109.074,49.021,109.074,109.276S248.161,279.621,188.018,279.621z"/>
		<path fill="#FFFFFF" d="M188.018,67.069c56.926,0,103.074,46.238,103.074,103.276c0,57.038-46.148,103.276-103.074,103.276
			c-56.927,0-103.075-46.238-103.075-103.276C84.942,113.307,131.09,67.069,188.018,67.069 M188.018,55.069
			c-30.742,0-59.643,11.994-81.378,33.772c-21.729,21.771-33.696,50.717-33.696,81.504c0,30.787,11.967,59.732,33.696,81.505
			c21.736,21.777,50.637,33.771,81.378,33.771c30.741,0,59.644-11.994,81.379-33.771c21.729-21.771,33.695-50.718,33.695-81.505
			c0-30.787-11.967-59.731-33.695-81.504C247.66,67.063,218.759,55.069,188.018,55.069L188.018,55.069z"/>
	</g>
	<path fill="#008037" d="M187.433,90.994c-21.121,0-40.998,8.24-55.931,23.173s-23.173,34.81-23.173,55.931
		c0,21.121,8.24,40.998,23.173,55.931c14.933,14.933,34.81,23.173,55.931,23.173c21.122,0,40.999-8.24,55.93-23.173
		c14.934-14.934,23.174-34.811,23.174-55.931c0-21.121-8.24-40.998-23.174-55.931C228.432,99.234,208.555,90.994,187.433,90.994z
		 M187.433,254.246c-22.466,0-43.621-8.744-59.496-24.652c-15.908-15.875-24.653-37.029-24.653-59.496s8.745-43.621,24.653-59.496
		c15.875-15.908,37.029-24.653,59.496-24.653s43.622,8.745,59.497,24.653c15.907,15.908,24.651,37.029,24.651,59.496
		c0,22.466-8.744,43.621-24.651,59.496C231.055,245.502,209.898,254.246,187.433,254.246L187.433,254.246z"/>
	<polygon fill="#F2A22C" points="84.942,181.664 291.092,181.708 291.173,236.184 84.942,236.236 	"/>
	<g>
		<path fill="#FFFFFF" stroke="#FFFFFF" stroke-width="2" stroke-miterlimit="10" d="M129.86,213.674h-6.235l3.117-17.001
			L129.86,213.674z M138.384,227.116c0.584,0,0.779-0.292,0.681-0.828l-8.085-37.457c-0.097-0.487-0.39-0.681-0.828-0.681h-6.771
			c-0.438,0-0.73,0.192-0.828,0.681l-8.085,37.457c-0.146,0.536,0.098,0.828,0.633,0.828h5.213c0.438,0,0.681-0.243,0.779-0.681
			l1.315-7.112h8.669l1.364,7.112c0.097,0.438,0.341,0.681,0.779,0.681H138.384z"/>
		<path fill="#FFFFFF" stroke="#FFFFFF" stroke-width="2" stroke-miterlimit="10" d="M150.073,207.633v-13.054h4.287
			c1.315,0,1.948,0.683,1.948,1.948v9.158c0,1.217-0.633,1.946-1.948,1.946L150.073,207.633L150.073,207.633z M143.449,226.337
			c0,0.487,0.292,0.779,0.779,0.779h5.065c0.536,0,0.779-0.292,0.779-0.779v-12.274h5.846c4.579,0,7.014-2.481,7.014-7.014v-11.885
			c0-4.578-2.435-7.014-7.014-7.014h-11.69c-0.487,0-0.779,0.291-0.779,0.779V226.337L143.449,226.337z"/>
		<path fill="#FFFFFF" stroke="#FFFFFF" stroke-width="2" stroke-miterlimit="10" d="M174.428,207.633v-13.054h4.287
			c1.315,0,1.948,0.683,1.948,1.948v9.158c0,1.217-0.633,1.946-1.948,1.946L174.428,207.633L174.428,207.633z M167.804,226.337
			c0,0.487,0.292,0.779,0.779,0.779h5.065c0.536,0,0.779-0.292,0.779-0.779v-12.274h5.846c4.579,0,7.014-2.481,7.014-7.014v-11.885
			c0-4.578-2.435-7.014-7.014-7.014h-11.69c-0.487,0-0.779,0.291-0.779,0.779V226.337z"/>
		<path fill="#FFFFFF" stroke="#FFFFFF" stroke-width="2" stroke-miterlimit="10" d="M211.593,188.93
			c0-0.486-0.194-0.779-0.778-0.779h-17.926c-0.438,0-0.73,0.293-0.73,0.779v37.407c0,0.487,0.292,0.779,0.73,0.779h17.926
			c0.584,0,0.778-0.292,0.778-0.779v-4.87c0-0.535-0.194-0.779-0.778-0.779h-12.178v-9.84h9.303c0.486,0,0.779-0.291,0.779-0.826
			v-4.822c0-0.536-0.293-0.828-0.779-0.828h-9.303v-9.742h12.178c0.584,0,0.778-0.34,0.778-0.827V188.93z"/>
		<path fill="#FFFFFF" stroke="#FFFFFF" stroke-width="2" stroke-miterlimit="10" d="M216.27,188.15
			c-0.487,0-0.779,0.291-0.779,0.779v4.87c0,0.487,0.292,0.778,0.779,0.778h5.649v31.758c0,0.536,0.293,0.779,0.779,0.779h5.065
			c0.534,0,0.779-0.243,0.779-0.779v-31.758h5.648c0.537,0,0.779-0.291,0.779-0.778v-4.87c0-0.488-0.242-0.779-0.779-0.779H216.27z"
			/>
		<path fill="#FFFFFF" stroke="#FFFFFF" stroke-width="2" stroke-miterlimit="10" d="M239.648,188.15
			c-0.535,0-0.779,0.291-0.779,0.779v37.406c0,0.487,0.244,0.779,0.779,0.779h5.065c0.487,0,0.779-0.292,0.779-0.779V188.93
			c0-0.486-0.292-0.779-0.779-0.779H239.648L239.648,188.15z"/>
		<path fill="#FFFFFF" stroke="#FFFFFF" stroke-width="2" stroke-miterlimit="10" d="M250.17,188.15
			c-0.486,0-0.779,0.291-0.779,0.779v4.87c0,0.487,0.293,0.778,0.779,0.778h5.648v31.758c0,0.536,0.293,0.779,0.779,0.779h5.066
			c0.536,0,0.779-0.243,0.779-0.779v-31.758h5.65c0.534,0,0.779-0.291,0.779-0.778v-4.87c0-0.488-0.245-0.779-0.779-0.779H250.17z"
			/>
	</g>
	<g display="none">
		<path display="inline" fill="#F2A22C" stroke="#F2A22C" stroke-width="2" stroke-miterlimit="10" d="M129.86,213.674h-6.235
			l3.117-17.001L129.86,213.674z M138.384,227.116c0.584,0,0.779-0.292,0.681-0.828l-8.085-37.457
			c-0.097-0.487-0.39-0.681-0.828-0.681h-6.771c-0.438,0-0.73,0.192-0.828,0.681l-8.085,37.457
			c-0.146,0.536,0.098,0.828,0.633,0.828h5.213c0.438,0,0.681-0.243,0.779-0.681l1.315-7.112h8.669l1.364,7.112
			c0.097,0.438,0.341,0.681,0.779,0.681H138.384z"/>
		<path display="inline" fill="#F2A22C" stroke="#F2A22C" stroke-width="2" stroke-miterlimit="10" d="M150.073,207.633v-13.054
			h4.287c1.315,0,1.948,0.683,1.948,1.948v9.158c0,1.217-0.633,1.946-1.948,1.946L150.073,207.633L150.073,207.633z
			 M143.449,226.337c0,0.487,0.292,0.779,0.779,0.779h5.065c0.536,0,0.779-0.292,0.779-0.779v-12.274h5.846
			c4.579,0,7.014-2.481,7.014-7.014v-11.885c0-4.578-2.435-7.014-7.014-7.014h-11.69c-0.487,0-0.779,0.291-0.779,0.779V226.337
			L143.449,226.337z"/>
		<path display="inline" fill="#F2A22C" stroke="#F2A22C" stroke-width="2" stroke-miterlimit="10" d="M174.428,207.633v-13.054
			h4.287c1.315,0,1.948,0.683,1.948,1.948v9.158c0,1.217-0.633,1.946-1.948,1.946L174.428,207.633L174.428,207.633z
			 M167.804,226.337c0,0.487,0.292,0.779,0.779,0.779h5.065c0.536,0,0.779-0.292,0.779-0.779v-12.274h5.846
			c4.579,0,7.014-2.481,7.014-7.014v-11.885c0-4.578-2.435-7.014-7.014-7.014h-11.69c-0.487,0-0.779,0.291-0.779,0.779V226.337z"/>
		<path display="inline" fill="#F2A22C" stroke="#F2A22C" stroke-width="2" stroke-miterlimit="10" d="M211.593,188.93
			c0-0.486-0.194-0.779-0.778-0.779h-17.926c-0.438,0-0.73,0.293-0.73,0.779v37.407c0,0.487,0.292,0.779,0.73,0.779h17.926
			c0.584,0,0.778-0.292,0.778-0.779v-4.87c0-0.535-0.194-0.779-0.778-0.779h-12.178v-9.84h9.303c0.486,0,0.779-0.291,0.779-0.826
			v-4.822c0-0.536-0.293-0.828-0.779-0.828h-9.303v-9.742h12.178c0.584,0,0.778-0.34,0.778-0.827V188.93z"/>
		<path display="inline" fill="#F2A22C" stroke="#F2A22C" stroke-width="2" stroke-miterlimit="10" d="M216.27,188.15
			c-0.487,0-0.779,0.291-0.779,0.779v4.87c0,0.487,0.292,0.778,0.779,0.778h5.649v31.758c0,0.536,0.293,0.779,0.779,0.779h5.065
			c0.534,0,0.779-0.243,0.779-0.779v-31.758h5.648c0.537,0,0.779-0.291,0.779-0.778v-4.87c0-0.488-0.242-0.779-0.779-0.779H216.27z"
			/>
		<path display="inline" fill="#F2A22C" stroke="#F2A22C" stroke-width="2" stroke-miterlimit="10" d="M239.648,188.15
			c-0.535,0-0.779,0.291-0.779,0.779v37.406c0,0.487,0.244,0.779,0.779,0.779h5.065c0.487,0,0.779-0.292,0.779-0.779V188.93
			c0-0.486-0.292-0.779-0.779-0.779H239.648L239.648,188.15z"/>
		<path display="inline" fill="#F2A22C" stroke="#F2A22C" stroke-width="2" stroke-miterlimit="10" d="M250.17,188.15
			c-0.486,0-0.779,0.291-0.779,0.779v4.87c0,0.487,0.293,0.778,0.779,0.778h5.648v31.758c0,0.536,0.293,0.779,0.779,0.779h5.066
			c0.536,0,0.779-0.243,0.779-0.779v-31.758h5.65c0.534,0,0.779-0.291,0.779-0.778v-4.87c0-0.488-0.245-0.779-0.779-0.779H250.17z"
			/>
	</g>
	<g>
		<path fill="#F2A22C" d="M215.357,137.119h-2.244c-2.465,0-4.483-0.813-5.999-2.423c-2.993-3.178-2.728-8.319-2.714-8.536
			l-0.004-15.635c0-0.999,0.809-1.806,1.804-1.806s1.804,0.808,1.804,1.806v15.74c-0.004,0.141-0.182,3.931,1.744,5.964
			c0.814,0.86,1.918,1.28,3.363,1.28h2.246c1.451,0,2.556-0.422,3.373-1.29c1.906-2.023,1.74-5.809,1.74-5.848l-0.007-15.846
			c0-0.999,0.81-1.806,1.806-1.806s1.804,0.808,1.804,1.806v15.74c0.01,0.112,0.274,5.253-2.72,8.431
			C219.843,136.305,217.823,137.119,215.357,137.119z"/>
		<path fill="#F2A22C" d="M211.721,122.098c-0.996,0-1.805-0.808-1.805-1.806v-9.817c0-0.998,0.809-1.806,1.805-1.806
			c0.994,0,1.803,0.808,1.803,1.806v9.817C213.521,121.29,212.715,122.098,211.721,122.098z"/>
		<path fill="#F2A22C" d="M216.754,122.098c-0.996,0-1.804-0.808-1.804-1.806v-9.817c0-0.998,0.808-1.806,1.804-1.806
			c0.995,0,1.803,0.808,1.803,1.806v9.817C218.557,121.29,217.749,122.098,216.754,122.098z"/>
		<path fill="#F2A22C" d="M213.104,147.624v28.36c0,0.337,0.274,0.611,0.611,0.611h1.039c0.337,0,0.612-0.274,0.612-0.611v-28.36
			H213.104L213.104,147.624z M214.754,180.207h-1.039c-2.326,0-4.218-1.894-4.218-4.222v-30.164c0-0.998,0.808-1.806,1.803-1.806
			h5.87c0.996,0,1.803,0.808,1.803,1.806v30.164C218.975,178.313,217.08,180.207,214.754,180.207z"/>
		<path fill="#F2A22C" d="M214.234,147.624c-0.996,0-1.803-0.807-1.803-1.803v-10.508c0-0.998,0.807-1.804,1.803-1.804
			s1.804,0.807,1.804,1.804v10.507C216.038,146.817,215.232,147.624,214.234,147.624z"/>
		<path fill="#F2A22C" d="M186.77,147.624v28.36c0,0.337,0.275,0.611,0.612,0.611h1.038c0.337,0,0.611-0.274,0.611-0.611v-28.36
			H186.77L186.77,147.624z M188.42,180.207h-1.037c-2.327,0-4.219-1.894-4.219-4.222v-30.164c0-0.998,0.808-1.806,1.803-1.806h5.869
			c0.996,0,1.805,0.808,1.805,1.806v30.164C192.639,178.313,190.745,180.207,188.42,180.207z"/>
		<path fill="#F2A22C" d="M187.9,147.624c-0.995,0-1.803-0.807-1.803-1.803v-10.508c0-0.998,0.808-1.804,1.803-1.804
			c0.997,0,1.805,0.807,1.805,1.804v10.507C189.705,146.817,188.896,147.624,187.9,147.624z"/>
		<path fill="#F2A22C" d="M163.327,147.624v28.36c0,0.337,0.274,0.611,0.612,0.611h1.039c0.337,0,0.611-0.274,0.611-0.611v-28.36
			H163.327L163.327,147.624z M164.978,180.207h-1.039c-2.326,0-4.219-1.894-4.219-4.222v-30.164c0-0.998,0.808-1.806,1.804-1.806
			h5.869c0.996,0,1.803,0.808,1.803,1.806v30.164C169.196,178.313,167.304,180.207,164.978,180.207z"/>
		<path fill="#F2A22C" d="M166.412,147.624c-0.995,0-1.803-0.807-1.803-1.803v-10.508c0-0.998,0.808-1.804,1.803-1.804
			c0.997,0,1.804,0.807,1.804,1.804v10.507C168.217,146.817,167.409,147.624,166.412,147.624z"/>
		<path fill="#F2A22C" d="M187.902,112.305c-3.781,0-6.977,4.854-6.977,10.601c0,5.747,3.196,10.604,6.977,10.604
			c3.782,0,6.977-4.856,6.977-10.604C194.879,117.159,191.686,112.305,187.902,112.305z M187.902,137.119
			c-5.835,0-10.583-6.377-10.583-14.213c0-7.836,4.748-14.211,10.583-14.211c5.836,0,10.583,6.375,10.583,14.211
			C198.484,130.741,193.738,137.119,187.902,137.119z"/>
		<path fill="#F2A22C" d="M164.609,104.702c-1.907,3.433-3.807,7.124-3.98,7.96l0.014,23.989c0,0.337,0.274,0.613,0.611,0.613h2.744
			c0.337,0,0.611-0.276,0.611-0.613V104.702L164.609,104.702z M163.998,140.874h-2.744c-2.326,0-4.219-1.893-4.219-4.223v-24.156
			c0-0.45,0-1.816,5.396-11.283c0.031-0.055,0.066-0.11,0.104-0.162c0.801-1.109,1.708-1.344,2.326-1.344
			c2.371,0,3.354,3.139,3.354,4.819v32.125C168.217,138.981,166.324,140.874,163.998,140.874z"/>
	</g>
	<g>
		<path fill="#F2A22C" d="M187.919,73.218c-25.864,0-50.204,10.09-68.489,28.376c-18.286,18.286-28.376,42.625-28.376,68.489
			s10.09,50.204,28.376,68.489c18.286,18.285,42.625,28.376,68.489,28.376c25.863,0,50.203-10.091,68.488-28.376
			c18.286-18.285,28.376-42.625,28.376-68.489c0-25.863-10.09-50.203-28.376-68.489C238.122,83.308,213.782,73.218,187.919,73.218
			L187.919,73.218z M187.919,273.125c-27.511,0-53.416-10.708-72.855-30.188c-19.48-19.439-30.188-45.345-30.188-72.855
			c0-27.511,10.708-53.416,30.188-72.854c19.439-19.48,45.344-30.188,72.855-30.188s53.415,10.708,72.854,30.188
			c19.479,19.48,30.188,45.344,30.188,72.854c0,27.511-10.708,53.416-30.188,72.855C241.334,262.417,215.43,273.125,187.919,273.125
			L187.919,273.125z"/>
		<g display="none">
			
				<text transform="matrix(1 0 0 1 118.5688 227.4951)" display="inline" fill="#FFFFFF" font-family="'TimesNewRomanPSMT'" font-size="12.0821">E</text>
			
				<text transform="matrix(1 0 0 1 107.9731 227.4951)" display="inline" fill="#FFFFFF" font-family="'TimesNewRomanPSMT'" font-size="12.0821">D</text>
			
				<text transform="matrix(1 0 0 1 128.0415 227.4951)" display="inline" fill="#FFFFFF" font-family="'TimesNewRomanPSMT'" font-size="12.0821">L</text>
			
				<text transform="matrix(1 0 0 1 136.1362 227.4951)" display="inline" fill="#FFFFFF" font-family="'TimesNewRomanPSMT'" font-size="12.0821">I</text>
			
				<text transform="matrix(1 0 0 1 141.3076 227.4951)" display="inline" fill="#FFFFFF" font-family="'TimesNewRomanPSMT'" font-size="12.0821">V</text>
			
				<text transform="matrix(1 0 0 1 151.4448 227.4951)" display="inline" fill="#FFFFFF" font-family="'TimesNewRomanPSMT'" font-size="12.0821">E</text>
			
				<text transform="matrix(1 0 0 1 160.917 227.4951)" display="inline" fill="#FFFFFF" font-family="'TimesNewRomanPSMT'" font-size="12.0821">R</text>
			
				<text transform="matrix(1 0 0 1 170.9937 227.4951)" display="inline" fill="#FFFFFF" font-family="'TimesNewRomanPSMT'" font-size="12.0821">Y</text>
			
				<text transform="matrix(1 0 0 1 180.5381 227.4951)" display="inline" fill="#FFFFFF" font-family="'TimesNewRomanPSMT'" font-size="12.0821"> </text>
			
				<text transform="matrix(1 0 0 1 184.6704 227.4951)" display="inline" fill="#FFFFFF" font-family="'TimesNewRomanPSMT'" font-size="12.0821">D</text>
			
				<text transform="matrix(1 0 0 1 195.2656 227.4951)" display="inline" fill="#FFFFFF" font-family="'TimesNewRomanPSMT'" font-size="12.0821">E</text>
			
				<text transform="matrix(1 0 0 1 204.7383 227.4951)" display="inline" fill="#FFFFFF" font-family="'TimesNewRomanPSMT'" font-size="12.0821"> </text>
			
				<text transform="matrix(1 0 0 1 208.8701 227.4951)" display="inline" fill="#FFFFFF" font-family="'TimesNewRomanPSMT'" font-size="12.0821">C</text>
			
				<text transform="matrix(1 0 0 1 218.5605 227.4951)" display="inline" fill="#FFFFFF" font-family="'TimesNewRomanPSMT'" font-size="12.0821">O</text>
			
				<text transform="matrix(1 0 0 1 229.6152 227.4951)" display="inline" fill="#FFFFFF" font-family="'TimesNewRomanPSMT'" font-size="12.0821">M</text>
			
				<text transform="matrix(1 0 0 1 241.9395 227.4951)" display="inline" fill="#FFFFFF" font-family="'TimesNewRomanPSMT'" font-size="12.0821">I</text>
			
				<text transform="matrix(1 0 0 1 247.1104 227.4951)" display="inline" fill="#FFFFFF" font-family="'TimesNewRomanPSMT'" font-size="12.0821">D</text>
			
				<text transform="matrix(1 0 0 1 257.7061 227.4951)" display="inline" fill="#FFFFFF" font-family="'TimesNewRomanPSMT'" font-size="12.0821">A</text>
		</g>
	</g>
</g>
<g id="Guias" display="none">
</g>
</svg>
