<?xml version="1.0" encoding="utf-8"?>
<!-- Generator: Adobe Illustrator 16.0.3, SVG Export Plug-In . SVG Version: 6.00 Build 0)  -->
<!DOCTYPE svg PUBLIC "-//W3C//DTD SVG 1.1//EN" "http://www.w3.org/Graphics/SVG/1.1/DTD/svg11.dtd">
<svg version="1.1" id="Capa_1" xmlns="http://www.w3.org/2000/svg" xmlns:xlink="http://www.w3.org/1999/xlink" x="0px" y="0px"
	 width="375px" height="375px" viewBox="0 0 375 375" enable-background="new 0 0 375 375" xml:space="preserve">
<g id="Capa_1_1_">
	<rect fill="#F2A22C" width="375" height="375"/>
	<polyline fill="#FFFFFF" stroke="#FFFFFF" stroke-width="24" stroke-miterlimit="10" points="61.741,293.223 24.032,293.223 
		24.032,206.473 	"/>
	<polyline fill="none" stroke="#FFFFFF" stroke-width="24" stroke-miterlimit="10" points="313.924,293.223 352.13,293.139 
		352.001,206.473 	"/>
	<g>
		<path fill="#FFFFFF" d="M188.018,362.244c-95.685,0-173.529-77.988-173.529-173.85c0-95.86,77.844-173.849,173.529-173.849
			c95.686,0,173.528,77.989,173.528,173.849C361.546,284.256,283.701,362.244,188.018,362.244z"/>
		<path fill="#FFFFFF" d="M188.018,24.091c90.564,0,163.983,73.562,163.983,164.304c0,90.744-73.419,164.305-163.983,164.305
			c-90.566,0-163.984-73.561-163.984-164.305C24.032,97.652,97.45,24.091,188.018,24.091 M188.018,5
			C139.11,5,93.131,24.082,58.551,58.729C23.982,93.364,4.943,139.416,4.943,188.395c0,48.98,19.039,95.029,53.608,129.668
			c34.58,34.646,80.559,53.729,129.467,53.729c48.907,0,94.889-19.082,129.468-53.729c34.568-34.637,53.606-80.688,53.606-129.668
			c0-48.979-19.038-95.028-53.606-129.666C282.904,24.082,236.925,5,188.018,5L188.018,5z"/>
	</g>
	<path fill="#008037" d="M187.088,62.154c-33.602,0-65.225,13.109-88.982,36.866C74.348,122.778,61.24,154.4,61.24,188.002
		s13.108,65.225,36.866,88.982c23.757,23.758,55.38,36.867,88.982,36.867c33.603,0,65.226-13.109,88.98-36.867
		c23.758-23.758,36.868-55.381,36.868-88.982s-13.11-65.224-36.868-88.981C252.313,75.263,220.69,62.154,187.088,62.154z
		 M187.088,321.875c-35.742,0-69.398-13.91-94.654-39.219c-25.309-25.256-39.221-58.912-39.221-94.654
		c0-35.742,13.912-69.397,39.221-94.653c25.256-25.309,58.91-39.221,94.654-39.221c35.744,0,69.398,13.912,94.654,39.221
		c25.308,25.308,39.219,58.91,39.219,94.653c0,35.742-13.911,69.398-39.219,94.654C256.486,307.965,222.828,321.875,187.088,321.875
		L187.088,321.875z"/>
	<polygon fill="#F2A22C" points="24.032,206.402 352.001,206.473 352.13,293.139 24.032,293.223 	"/>
	<g>
		<path fill="#FFFFFF" stroke="#FFFFFF" stroke-width="2" stroke-miterlimit="10" d="M95.493,257.328h-9.919l4.959-27.047
			L95.493,257.328z M109.054,278.713c0.929,0,1.24-0.463,1.083-1.316l-12.862-59.592c-0.155-0.775-0.621-1.082-1.317-1.082H85.186
			c-0.697,0-1.161,0.307-1.316,1.082l-12.863,59.592c-0.232,0.854,0.156,1.316,1.007,1.316h8.293c0.697,0,1.083-0.387,1.239-1.082
			l2.093-11.314H97.43l2.169,11.314c0.155,0.695,0.543,1.082,1.24,1.082H109.054z"/>
		<path fill="#FFFFFF" stroke="#FFFFFF" stroke-width="2" stroke-miterlimit="10" d="M127.651,247.717v-20.768h6.819
			c2.092,0,3.1,1.086,3.1,3.1v14.57c0,1.936-1.007,3.096-3.1,3.096h-6.819V247.717z M117.113,277.475
			c0,0.775,0.465,1.238,1.239,1.238h8.058c0.853,0,1.24-0.463,1.24-1.238v-19.527h9.3c7.285,0,11.159-3.949,11.159-11.158v-18.908
			c0-7.283-3.874-11.158-11.159-11.158h-18.598c-0.774,0-1.239,0.463-1.239,1.24V277.475L117.113,277.475z"/>
		<path fill="#FFFFFF" stroke="#FFFFFF" stroke-width="2" stroke-miterlimit="10" d="M166.398,247.717v-20.768h6.82
			c2.092,0,3.1,1.086,3.1,3.1v14.57c0,1.936-1.008,3.096-3.1,3.096h-6.82V247.717z M155.86,277.475c0,0.775,0.464,1.238,1.239,1.238
			h8.058c0.853,0,1.24-0.463,1.24-1.238v-19.527h9.3c7.285,0,11.159-3.949,11.159-11.158v-18.908
			c0-7.283-3.874-11.158-11.159-11.158h-18.598c-0.774,0-1.239,0.463-1.239,1.24V277.475z"/>
		<path fill="#FFFFFF" stroke="#FFFFFF" stroke-width="2" stroke-miterlimit="10" d="M225.524,217.963c0-0.775-0.31-1.24-1.238-1.24
			h-28.519c-0.698,0-1.162,0.465-1.162,1.24v59.512c0,0.775,0.464,1.238,1.162,1.238h28.519c0.929,0,1.238-0.463,1.238-1.238v-7.748
			c0-0.852-0.31-1.24-1.238-1.24h-19.374v-15.654h14.8c0.773,0,1.239-0.463,1.239-1.314v-7.672c0-0.854-0.466-1.318-1.239-1.318
			h-14.8v-15.498h19.374c0.929,0,1.238-0.541,1.238-1.316V217.963z"/>
		<path fill="#FFFFFF" stroke="#FFFFFF" stroke-width="2" stroke-miterlimit="10" d="M232.965,216.723
			c-0.775,0-1.24,0.463-1.24,1.24v7.748c0,0.773,0.465,1.238,1.24,1.238h8.987v50.523c0,0.854,0.466,1.24,1.24,1.24h8.059
			c0.85,0,1.239-0.387,1.239-1.24v-50.523h8.986c0.854,0,1.24-0.465,1.24-1.238v-7.748c0-0.777-0.386-1.24-1.24-1.24H232.965z"/>
		<path fill="#FFFFFF" stroke="#FFFFFF" stroke-width="2" stroke-miterlimit="10" d="M270.158,216.723
			c-0.852,0-1.239,0.463-1.239,1.24v59.51c0,0.775,0.388,1.24,1.239,1.24h8.059c0.775,0,1.24-0.465,1.24-1.24v-59.51
			c0-0.775-0.465-1.24-1.24-1.24H270.158L270.158,216.723z"/>
		<path fill="#FFFFFF" stroke="#FFFFFF" stroke-width="2" stroke-miterlimit="10" d="M286.897,216.723
			c-0.774,0-1.24,0.463-1.24,1.24v7.748c0,0.773,0.466,1.238,1.24,1.238h8.986v50.523c0,0.854,0.466,1.24,1.239,1.24h8.061
			c0.853,0,1.239-0.387,1.239-1.24v-50.523h8.99c0.85,0,1.239-0.465,1.239-1.238v-7.748c0-0.777-0.39-1.24-1.239-1.24H286.897z"/>
	</g>
	<g display="none">
		<path display="inline" fill="#F2A22C" stroke="#F2A22C" stroke-width="2" stroke-miterlimit="10" d="M129.86,213.674h-6.235
			l3.117-17.001L129.86,213.674z M138.384,227.116c0.584,0,0.779-0.292,0.681-0.828l-8.085-37.457
			c-0.097-0.487-0.39-0.681-0.828-0.681h-6.771c-0.438,0-0.73,0.192-0.828,0.681l-8.085,37.457
			c-0.146,0.536,0.098,0.828,0.633,0.828h5.213c0.438,0,0.681-0.243,0.779-0.681l1.315-7.112h8.669l1.364,7.112
			c0.097,0.438,0.341,0.681,0.779,0.681H138.384z"/>
		<path display="inline" fill="#F2A22C" stroke="#F2A22C" stroke-width="2" stroke-miterlimit="10" d="M150.073,207.633v-13.054
			h4.287c1.315,0,1.948,0.683,1.948,1.948v9.158c0,1.217-0.633,1.946-1.948,1.946L150.073,207.633L150.073,207.633z
			 M143.449,226.337c0,0.487,0.292,0.779,0.779,0.779h5.065c0.536,0,0.779-0.292,0.779-0.779v-12.274h5.846
			c4.579,0,7.014-2.481,7.014-7.014v-11.885c0-4.578-2.435-7.014-7.014-7.014h-11.69c-0.487,0-0.779,0.291-0.779,0.779V226.337
			L143.449,226.337z"/>
		<path display="inline" fill="#F2A22C" stroke="#F2A22C" stroke-width="2" stroke-miterlimit="10" d="M174.428,207.633v-13.054
			h4.287c1.315,0,1.948,0.683,1.948,1.948v9.158c0,1.217-0.633,1.946-1.948,1.946L174.428,207.633L174.428,207.633z
			 M167.804,226.337c0,0.487,0.292,0.779,0.779,0.779h5.065c0.536,0,0.779-0.292,0.779-0.779v-12.274h5.846
			c4.579,0,7.014-2.481,7.014-7.014v-11.885c0-4.578-2.435-7.014-7.014-7.014h-11.69c-0.487,0-0.779,0.291-0.779,0.779V226.337z"/>
		<path display="inline" fill="#F2A22C" stroke="#F2A22C" stroke-width="2" stroke-miterlimit="10" d="M211.593,188.93
			c0-0.486-0.194-0.779-0.778-0.779h-17.926c-0.438,0-0.73,0.293-0.73,0.779v37.407c0,0.487,0.292,0.779,0.73,0.779h17.926
			c0.584,0,0.778-0.292,0.778-0.779v-4.87c0-0.535-0.194-0.779-0.778-0.779h-12.178v-9.84h9.303c0.486,0,0.779-0.291,0.779-0.826
			v-4.822c0-0.536-0.293-0.828-0.779-0.828h-9.303v-9.742h12.178c0.584,0,0.778-0.34,0.778-0.827V188.93z"/>
		<path display="inline" fill="#F2A22C" stroke="#F2A22C" stroke-width="2" stroke-miterlimit="10" d="M216.27,188.15
			c-0.487,0-0.779,0.291-0.779,0.779v4.87c0,0.487,0.292,0.778,0.779,0.778h5.649v31.758c0,0.536,0.293,0.779,0.779,0.779h5.065
			c0.534,0,0.779-0.243,0.779-0.779v-31.758h5.648c0.537,0,0.779-0.291,0.779-0.778v-4.87c0-0.488-0.242-0.779-0.779-0.779H216.27z"
			/>
		<path display="inline" fill="#F2A22C" stroke="#F2A22C" stroke-width="2" stroke-miterlimit="10" d="M239.648,188.15
			c-0.535,0-0.779,0.291-0.779,0.779v37.406c0,0.487,0.244,0.779,0.779,0.779h5.065c0.487,0,0.779-0.292,0.779-0.779V188.93
			c0-0.486-0.292-0.779-0.779-0.779H239.648L239.648,188.15z"/>
		<path display="inline" fill="#F2A22C" stroke="#F2A22C" stroke-width="2" stroke-miterlimit="10" d="M250.17,188.15
			c-0.486,0-0.779,0.291-0.779,0.779v4.87c0,0.487,0.293,0.778,0.779,0.778h5.648v31.758c0,0.536,0.293,0.779,0.779,0.779h5.066
			c0.536,0,0.779-0.243,0.779-0.779v-31.758h5.65c0.534,0,0.779-0.291,0.779-0.778v-4.87c0-0.488-0.245-0.779-0.779-0.779H250.17z"
			/>
	</g>
	<g>
		<path fill="#F2A22C" d="M231.514,135.536h-3.57c-3.922,0-7.133-1.293-9.544-3.855c-4.763-5.056-4.34-13.234-4.318-13.58
			l-0.006-24.875c0-1.589,1.286-2.874,2.87-2.874c1.583,0,2.869,1.286,2.869,2.874v25.042c-0.006,0.225-0.289,6.253,2.774,9.488
			c1.296,1.368,3.052,2.036,5.351,2.036h3.574c2.309,0,4.065-0.671,5.366-2.053c3.032-3.218,2.769-9.241,2.769-9.303l-0.011-25.21
			c0-1.589,1.287-2.874,2.872-2.874s2.87,1.286,2.87,2.874v25.042c0.015,0.178,0.437,8.357-4.327,13.413
			C238.649,134.241,235.437,135.536,231.514,135.536z"/>
		<path fill="#F2A22C" d="M225.728,111.638c-1.585,0-2.871-1.286-2.871-2.873V93.147c0-1.588,1.286-2.874,2.871-2.874
			c1.582,0,2.868,1.286,2.868,2.874v15.618C228.593,110.353,227.31,111.638,225.728,111.638z"/>
		<path fill="#F2A22C" d="M233.735,111.638c-1.585,0-2.87-1.286-2.87-2.873V93.147c0-1.588,1.285-2.874,2.87-2.874
			c1.583,0,2.867,1.286,2.867,2.874v15.618C236.603,110.353,235.318,111.638,233.735,111.638z"/>
		<path fill="#F2A22C" d="M227.928,152.248v45.119c0,0.535,0.437,0.971,0.973,0.971h1.652c0.536,0,0.975-0.436,0.975-0.971v-45.119
			H227.928L227.928,152.248z M230.553,204.086H228.9c-3.701,0-6.711-3.014-6.711-6.719v-47.988c0-1.587,1.285-2.873,2.868-2.873
			h9.339c1.585,0,2.868,1.286,2.868,2.873v47.988C237.268,201.072,234.254,204.086,230.553,204.086z"/>
		<path fill="#F2A22C" d="M229.727,152.248c-1.585,0-2.868-1.284-2.868-2.869v-16.717c0-1.588,1.283-2.87,2.868-2.87
			s2.869,1.284,2.869,2.87v16.715C232.596,150.964,231.314,152.248,229.727,152.248z"/>
		<path fill="#F2A22C" d="M186.033,152.248v45.119c0,0.535,0.437,0.971,0.973,0.971h1.652c0.535,0,0.973-0.436,0.973-0.971v-45.119
			H186.033L186.033,152.248z M188.658,204.086h-1.65c-3.702,0-6.712-3.014-6.712-6.719v-47.988c0-1.587,1.286-2.873,2.868-2.873
			h9.338c1.584,0,2.871,1.286,2.871,2.873v47.988C195.369,201.072,192.357,204.086,188.658,204.086z"/>
		<path fill="#F2A22C" d="M187.831,152.248c-1.583,0-2.868-1.284-2.868-2.869v-16.717c0-1.588,1.285-2.87,2.868-2.87
			c1.585,0,2.872,1.284,2.872,2.87v16.715C190.702,150.964,189.416,152.248,187.831,152.248z"/>
		<path fill="#F2A22C" d="M148.737,152.248v45.119c0,0.535,0.436,0.971,0.973,0.971h1.653c0.536,0,0.972-0.436,0.972-0.971v-45.119
			H148.737L148.737,152.248z M151.364,204.086h-1.653c-3.701,0-6.711-3.014-6.711-6.719v-47.988c0-1.587,1.285-2.873,2.869-2.873
			h9.337c1.585,0,2.868,1.286,2.868,2.873v47.988C158.074,201.072,155.064,204.086,151.364,204.086z"/>
		<path fill="#F2A22C" d="M153.645,152.248c-1.583,0-2.869-1.284-2.869-2.869v-16.717c0-1.588,1.286-2.87,2.869-2.87
			c1.586,0,2.87,1.284,2.87,2.87v16.715C156.516,150.964,155.231,152.248,153.645,152.248z"/>
		<path fill="#F2A22C" d="M187.833,96.059c-6.015,0-11.1,7.722-11.1,16.865c0,9.143,5.085,16.87,11.1,16.87
			c6.016,0,11.1-7.726,11.1-16.87C198.934,103.781,193.854,96.059,187.833,96.059z M187.833,135.536
			c-9.283,0-16.836-10.146-16.836-22.612c0-12.467,7.554-22.609,16.836-22.609c9.286,0,16.836,10.142,16.836,22.609
			C204.67,125.389,197.119,135.536,187.833,135.536z"/>
		<path fill="#F2A22C" d="M150.776,83.962c-3.034,5.461-6.057,11.334-6.332,12.664l0.022,38.164c0,0.537,0.436,0.976,0.972,0.976
			h4.366c0.536,0,0.972-0.439,0.972-0.976V83.962L150.776,83.962z M149.805,141.509h-4.366c-3.7,0-6.712-3.012-6.712-6.719v-38.43
			c0-0.716,0-2.89,8.584-17.951c0.049-0.087,0.105-0.175,0.166-0.258c1.274-1.764,2.717-2.138,3.7-2.138
			c3.772,0,5.336,4.994,5.336,7.667v51.108C156.516,138.498,153.505,141.509,149.805,141.509z"/>
	</g>
	<g>
		<path fill="#F2A22C" d="M187.861,33.874c-41.147,0-79.871,16.053-108.96,45.144c-29.092,29.092-45.144,67.813-45.144,108.961
			c0,41.148,16.052,79.871,45.144,108.961c29.091,29.09,67.813,45.145,108.96,45.145c41.146,0,79.87-16.055,108.959-45.145
			c29.092-29.09,45.144-67.813,45.144-108.961c0-41.146-16.052-79.869-45.144-108.961C267.73,49.926,229.007,33.874,187.861,33.874
			L187.861,33.874z M187.861,351.91c-43.768,0-84.981-17.035-115.907-48.025c-30.991-30.928-48.026-72.141-48.026-115.908
			c0-43.769,17.035-84.981,48.026-115.905c30.926-30.991,72.139-48.026,115.907-48.026c43.767,0,84.979,17.035,115.906,48.026
			c30.989,30.991,48.026,72.139,48.026,115.905c0,43.767-17.036,84.98-48.026,115.908C272.84,334.875,231.628,351.91,187.861,351.91
			L187.861,351.91z"/>
		<g display="none">
			
				<text transform="matrix(1 0 0 1 77.5303 261.2656)" display="inline" fill="#FFFFFF" font-family="'TimesNewRomanPSMT'" font-size="19.2217">E</text>
			
				<text transform="matrix(1 0 0 1 107.9731 227.4951)" display="inline" fill="#FFFFFF" font-family="'TimesNewRomanPSMT'" font-size="12.0821">D</text>
			
				<text transform="matrix(1 0 0 1 128.0415 227.4951)" display="inline" fill="#FFFFFF" font-family="'TimesNewRomanPSMT'" font-size="12.0821">L</text>
			
				<text transform="matrix(1 0 0 1 136.1362 227.4951)" display="inline" fill="#FFFFFF" font-family="'TimesNewRomanPSMT'" font-size="12.0821">I</text>
			
				<text transform="matrix(1 0 0 1 141.3076 227.4951)" display="inline" fill="#FFFFFF" font-family="'TimesNewRomanPSMT'" font-size="12.0821">V</text>
			
				<text transform="matrix(1 0 0 1 151.4448 227.4951)" display="inline" fill="#FFFFFF" font-family="'TimesNewRomanPSMT'" font-size="12.0821">E</text>
			
				<text transform="matrix(1 0 0 1 160.917 227.4951)" display="inline" fill="#FFFFFF" font-family="'TimesNewRomanPSMT'" font-size="12.0821">R</text>
			
				<text transform="matrix(1 0 0 1 170.9937 227.4951)" display="inline" fill="#FFFFFF" font-family="'TimesNewRomanPSMT'" font-size="12.0821">Y</text>
			
				<text transform="matrix(1 0 0 1 180.5381 227.4951)" display="inline" fill="#FFFFFF" font-family="'TimesNewRomanPSMT'" font-size="12.0821"> </text>
			
				<text transform="matrix(1 0 0 1 184.6704 227.4951)" display="inline" fill="#FFFFFF" font-family="'TimesNewRomanPSMT'" font-size="12.0821">D</text>
			
				<text transform="matrix(1 0 0 1 195.2656 227.4951)" display="inline" fill="#FFFFFF" font-family="'TimesNewRomanPSMT'" font-size="12.0821">E</text>
			
				<text transform="matrix(1 0 0 1 204.7383 227.4951)" display="inline" fill="#FFFFFF" font-family="'TimesNewRomanPSMT'" font-size="12.0821"> </text>
			
				<text transform="matrix(1 0 0 1 208.8701 227.4951)" display="inline" fill="#FFFFFF" font-family="'TimesNewRomanPSMT'" font-size="12.0821">C</text>
			
				<text transform="matrix(1 0 0 1 218.5605 227.4951)" display="inline" fill="#FFFFFF" font-family="'TimesNewRomanPSMT'" font-size="12.0821">O</text>
			
				<text transform="matrix(1 0 0 1 229.6152 227.4951)" display="inline" fill="#FFFFFF" font-family="'TimesNewRomanPSMT'" font-size="12.0821">M</text>
			
				<text transform="matrix(1 0 0 1 241.9395 227.4951)" display="inline" fill="#FFFFFF" font-family="'TimesNewRomanPSMT'" font-size="12.0821">I</text>
			
				<text transform="matrix(1 0 0 1 247.1104 227.4951)" display="inline" fill="#FFFFFF" font-family="'TimesNewRomanPSMT'" font-size="12.0821">D</text>
			
				<text transform="matrix(1 0 0 1 257.7061 227.4951)" display="inline" fill="#FFFFFF" font-family="'TimesNewRomanPSMT'" font-size="12.0821">A</text>
		</g>
	</g>
</g>
<g id="Guias" display="none">
</g>
</svg>
