<?xml version="1.0" encoding="iso-8859-1"?>
<!-- Generator: Adobe Illustrator 18.0.0, SVG Export Plug-In . SVG Version: 6.00 Build 0)  -->
<!DOCTYPE svg PUBLIC "-//W3C//DTD SVG 1.1//EN" "http://www.w3.org/Graphics/SVG/1.1/DTD/svg11.dtd">
<svg version="1.1" id="Capa_1" xmlns="http://www.w3.org/2000/svg" xmlns:xlink="http://www.w3.org/1999/xlink" x="0px" y="0px"
	 viewBox="0 0 60 60" style="enable-background:new 0 0 60 60;" xml:space="preserve">
<path d="M54.5,40.101V19.899c2.279-0.465,4-2.484,4-4.899c0-2.757-2.243-5-5-5c-2.047,0-3.806,1.239-4.578,3.004L11.496,5.041
	C11.496,5.027,11.5,5.014,11.5,5c0-2.757-2.243-5-5-5s-5,2.243-5,5c0,2.414,1.721,4.434,4,4.899v40.202
	c-2.279,0.465-4,2.484-4,4.899c0,2.757,2.243,5,5,5s5-2.243,5-5c0-0.014-0.004-0.027-0.004-0.041l37.426-7.964
	C49.694,48.761,51.453,50,53.5,50c2.757,0,5-2.243,5-5C58.5,42.586,56.779,40.566,54.5,40.101z M48.5,45.041l-37.419,7.962
	c-0.106-0.241-0.236-0.467-0.376-0.686c-0.046-0.071-0.092-0.14-0.141-0.209c-0.151-0.211-0.313-0.413-0.493-0.598
	c-0.052-0.053-0.11-0.099-0.164-0.149c-0.151-0.141-0.31-0.273-0.478-0.394c-0.073-0.053-0.144-0.108-0.22-0.158
	c-0.212-0.138-0.435-0.258-0.667-0.363c-0.079-0.035-0.159-0.066-0.24-0.097c-0.238-0.093-0.481-0.172-0.733-0.228
	c-0.024-0.005-0.045-0.015-0.069-0.02V9.899c0.024-0.005,0.045-0.015,0.069-0.02c0.252-0.056,0.495-0.135,0.733-0.228
	c0.081-0.031,0.161-0.062,0.24-0.097c0.232-0.105,0.455-0.225,0.667-0.363c0.076-0.05,0.147-0.104,0.22-0.158
	C9.596,8.911,9.756,8.78,9.907,8.639c0.054-0.051,0.112-0.096,0.164-0.149c0.181-0.184,0.342-0.387,0.493-0.598
	c0.049-0.069,0.096-0.137,0.141-0.209c0.14-0.219,0.271-0.445,0.376-0.686L48.5,14.959c0,0.014,0,0.027,0,0.041
	c0,0.325,0.036,0.642,0.096,0.95c0.02,0.101,0.054,0.196,0.08,0.295c0.052,0.203,0.109,0.403,0.185,0.595
	c0.044,0.11,0.098,0.213,0.149,0.319c0.082,0.17,0.169,0.336,0.269,0.495c0.065,0.104,0.136,0.202,0.208,0.3
	c0.109,0.147,0.224,0.287,0.348,0.422c0.083,0.09,0.166,0.177,0.255,0.261c0.135,0.127,0.279,0.242,0.428,0.354
	c0.095,0.071,0.186,0.144,0.286,0.208c0.169,0.109,0.348,0.2,0.53,0.288c0.093,0.045,0.181,0.098,0.277,0.137
	c0.267,0.109,0.545,0.197,0.832,0.259c0.018,0.004,0.035,0.012,0.053,0.016c0.001,0,0.002,0,0.003,0.001v20.201
	c-0.001,0-0.002,0.001-0.003,0.001c-0.018,0.004-0.035,0.012-0.053,0.016c-0.288,0.062-0.565,0.15-0.832,0.259
	c-0.096,0.039-0.184,0.092-0.277,0.137c-0.182,0.088-0.361,0.179-0.53,0.288c-0.1,0.064-0.191,0.137-0.286,0.208
	c-0.149,0.111-0.293,0.227-0.428,0.354c-0.089,0.084-0.172,0.171-0.255,0.261c-0.124,0.135-0.239,0.274-0.348,0.422
	c-0.073,0.098-0.143,0.196-0.208,0.3c-0.1,0.159-0.187,0.325-0.269,0.495c-0.051,0.106-0.106,0.209-0.149,0.319
	c-0.076,0.192-0.133,0.392-0.185,0.595c-0.026,0.099-0.06,0.194-0.08,0.295C48.536,44.358,48.5,44.675,48.5,45
	C48.5,45.014,48.5,45.027,48.5,45.041z"/>
<g>
</g>
<g>
</g>
<g>
</g>
<g>
</g>
<g>
</g>
<g>
</g>
<g>
</g>
<g>
</g>
<g>
</g>
<g>
</g>
<g>
</g>
<g>
</g>
<g>
</g>
<g>
</g>
<g>
</g>
</svg>
